<svg width="14" height="16" viewBox="0 0 14 16" fill="none" xmlns="http://www.w3.org/2000/svg">
  <path
    d="M1 1.5V11H11.7929C12.3066 11 12.5635 11 12.6274 10.8457C12.6913 10.6913 12.5097 10.5097 12.1464 10.1464L8.28284 6.28284C8.14951 6.14951 8.08284 6.08284 8.08284 6C8.08284 5.91716 8.14951 5.85049 8.28284 5.71716L12.1464 1.85355C12.5097 1.49029 12.6913 1.30866 12.6274 1.15433C12.5635 1 12.3066 1 11.7929 1H1.5C1.2643 1 1.14645 1 1.07322 1.07322C1 1.14645 1 1.2643 1 1.5Z"
    fill="white" />
  <path
    d="M1 11V1.5C1 1.2643 1 1.14645 1.07322 1.07322C1.14645 1 1.2643 1 1.5 1H11.7929C12.3066 1 12.5635 1 12.6274 1.15433C12.6913 1.30866 12.5097 1.49029 12.1464 1.85355L8.28284 5.71716C8.14951 5.85049 8.08284 5.91716 8.08284 6C8.08284 6.08284 8.14951 6.14951 8.28284 6.28284L12.1464 10.1464C12.5097 10.5097 12.6913 10.6913 12.6274 10.8457C12.5635 11 12.3066 11 11.7929 11H1ZM1 11V15"
    stroke="currentColor" stroke-width="2" stroke-linecap="round" />
</svg>