<svg width="111" height="22" viewBox="0 0 111 22" fill="none" xmlns="http://www.w3.org/2000/svg">
  <!-- <path
    d="M99.2779 9.2295H109.222V12.9475H99.2779V9.2295ZM99.632 17.7279H110.875V21.5639H94.8812V0.908188H110.491V4.74425H99.632V17.7279Z"
    fill="white" />
  <path d="M80.919 21.5639V4.80327H74.3091V0.908188H92.3091V4.80327H85.6993V21.5639H80.919Z" fill="white" />
  <path d="M66.9579 21.5639V0.908188H71.7382V21.5639H66.9579Z" fill="white" />
  <path
    d="M54.9275 21.918C53.2751 21.918 51.6915 21.7016 50.1767 21.2688C48.662 20.8164 47.4423 20.2361 46.5177 19.5279L48.1407 15.9279C49.0259 16.5574 50.0685 17.0787 51.2685 17.4918C52.4882 17.8852 53.7177 18.082 54.957 18.082C55.9013 18.082 56.6587 17.9934 57.2292 17.8164C57.8193 17.6197 58.2521 17.3541 58.5275 17.0197C58.8029 16.6852 58.9406 16.3016 58.9406 15.8688C58.9406 15.318 58.7243 14.8852 58.2915 14.5705C57.8587 14.2361 57.2882 13.9705 56.58 13.7738C55.8718 13.5574 55.0849 13.3606 54.2193 13.1836C53.3734 12.9869 52.5177 12.7508 51.6521 12.4754C50.8062 12.2 50.0292 11.8459 49.321 11.4131C48.6128 10.9803 48.0325 10.4098 47.58 9.70163C47.1472 8.99344 46.9308 8.08852 46.9308 6.98688C46.9308 5.80655 47.2456 4.73442 47.8751 3.77049C48.5243 2.78688 49.4882 2.00983 50.7669 1.43934C52.0652 0.849174 53.6882 0.554092 55.6357 0.554092C56.9341 0.554092 58.2128 0.71147 59.4718 1.02622C60.7308 1.3213 61.8423 1.77376 62.8062 2.3836L61.3308 6.01311C60.3669 5.46229 59.4029 5.05901 58.439 4.80327C57.4751 4.52786 56.5308 4.39016 55.6062 4.39016C54.6816 4.39016 53.9243 4.49835 53.3341 4.71475C52.7439 4.93114 52.321 5.21639 52.0652 5.57048C51.8095 5.90491 51.6816 6.29835 51.6816 6.75081C51.6816 7.28196 51.898 7.71475 52.3308 8.04917C52.7636 8.36393 53.3341 8.61967 54.0423 8.81639C54.7505 9.01311 55.5275 9.20983 56.3734 9.40655C57.239 9.60327 58.0947 9.8295 58.9406 10.0852C59.8062 10.341 60.5931 10.6852 61.3013 11.118C62.0095 11.5508 62.58 12.1213 63.0128 12.8295C63.4652 13.5377 63.6915 14.4328 63.6915 15.5147C63.6915 16.6754 63.3669 17.7377 62.7177 18.7016C62.0685 19.6656 61.0947 20.4426 59.7964 21.0328C58.5177 21.6229 56.8947 21.918 54.9275 21.918Z"
    fill="white" /> -->
  <path
    d="M33.7663 21.5639V13.1246L34.8581 16.0164L25.7695 0.908188H30.8449L37.8089 12.5049H34.8876L41.881 0.908188H46.5728L37.4843 16.0164L38.5466 13.1246V21.5639H33.7663Z"
    fill="white" />
  <path
    d="M0.449188 21.5639V0.908188H4.40329L13.1967 15.4852H11.1016L19.7476 0.908188H23.6721L23.7312 21.5639H19.2459L19.2164 7.7836H20.0426L13.1377 19.3803H10.9836L3.93116 7.7836H4.93443V21.5639H0.449188Z"
    fill="white" />
</svg>