<svg width="15" height="15" viewBox="0 0 15 15" fill="none" xmlns="http://www.w3.org/2000/svg">
  <g clip-path="url(#clip0_168_1785)">
    <path
      d="M11.543 14.0626C11.4443 14.063 11.348 14.0322 11.2679 13.9747L7.49999 11.243L3.73212 13.9747C3.65162 14.0331 3.55464 14.0643 3.4552 14.064C3.35576 14.0636 3.25901 14.0316 3.17893 13.9727C3.09886 13.9137 3.03962 13.8308 3.00977 13.7359C2.97992 13.6411 2.98101 13.5392 3.01288 13.445L4.48241 9.09237L0.673817 6.48055C0.59132 6.42404 0.529057 6.34263 0.496123 6.24821C0.46319 6.15379 0.461312 6.05132 0.490766 5.95576C0.520219 5.8602 0.579459 5.77656 0.659831 5.71707C0.740203 5.65758 0.837494 5.62534 0.937489 5.62508H5.63612L7.05409 1.26131C7.08464 1.1671 7.14424 1.08498 7.22435 1.02674C7.30445 0.968504 7.40095 0.937134 7.49999 0.937134C7.59903 0.937134 7.69553 0.968504 7.77563 1.02674C7.85574 1.08498 7.91534 1.1671 7.94589 1.26131L9.36386 5.62655H14.0625C14.1626 5.6265 14.2601 5.65851 14.3407 5.71789C14.4213 5.77726 14.4808 5.8609 14.5105 5.95653C14.5401 6.05216 14.5383 6.15477 14.5054 6.24933C14.4725 6.34389 14.4102 6.42543 14.3276 6.48201L10.5176 9.09237L11.9862 13.4438C12.01 13.5143 12.0167 13.5894 12.0057 13.6629C11.9948 13.7365 11.9665 13.8064 11.9232 13.8668C11.8799 13.9273 11.8228 13.9765 11.7567 14.0106C11.6906 14.0446 11.6173 14.0624 11.543 14.0626Z"
      fill="#FFC107" />
  </g>
  <defs>
    <clipPath id="clip0_168_1785">
      <rect width="15" height="15" fill="white" />
    </clipPath>
  </defs>
</svg>